<svg width="164" height="35" viewBox="0 0 164 35" fill="none" xmlns="http://www.w3.org/2000/svg">
<path fill-rule="evenodd" clip-rule="evenodd" d="M6.41538 9.23609C9.15572 5.73387 13.5439 3.46493 18.4899 3.46493C23.4649 3.46493 27.8754 5.76065 30.6125 9.29799C30.4959 9.41181 30.3899 9.52978 30.2938 9.64759C29.7924 10.2645 29.4152 11.059 29.113 11.8659C28.5044 13.4887 28.0402 15.6085 27.6105 17.5935L27.5722 17.7719C27.1434 19.7533 26.7448 21.5959 26.2629 22.9638C26.0464 23.5783 25.8411 24.0128 25.659 24.291C25.469 24.0105 25.2534 23.5708 25.0253 22.9475C24.5098 21.5403 24.0763 19.6263 23.6167 17.5827L23.6018 17.5157V17.5157C23.1602 15.5527 22.6917 13.4699 22.1076 11.8756C21.8142 11.0747 21.4542 10.2881 20.9832 9.67694C20.5211 9.07718 19.7517 8.40029 18.6266 8.40029C17.5085 8.40029 16.7356 9.06983 16.2667 9.66287C15.7867 10.2701 15.4125 11.0534 15.1042 11.8547C14.4834 13.4682 13.9758 15.5789 13.5034 17.5666L13.4546 17.7719C12.9869 19.7409 12.5496 21.5818 12.0532 22.9523C11.8637 23.4757 11.6849 23.8739 11.5231 24.1583C11.3649 23.8752 11.1905 23.4797 11.0062 22.9607C10.53 21.6194 10.1128 19.8301 9.66481 17.9083L9.58638 17.5719C9.12218 15.583 8.61854 13.4685 7.98886 11.85C7.67601 11.0457 7.29334 10.2584 6.79816 9.64838C6.68602 9.5103 6.5586 9.37013 6.41538 9.23609ZM4.75685 11.9253C4.88737 12.1701 5.02544 12.4736 5.16819 12.8406C5.71325 14.2416 6.17498 16.1533 6.65047 18.1905L6.74303 18.5875C7.17595 20.4464 7.62629 22.38 8.15675 23.8739C8.43889 24.6684 8.77961 25.4466 9.21778 26.0514C9.63216 26.6235 10.3756 27.3623 11.5186 27.3623C12.6584 27.3623 13.4036 26.627 13.8208 26.0576C14.2627 25.4542 14.609 24.6769 14.8968 23.8818C15.4486 22.3584 15.9184 20.3794 16.368 18.4855V18.4854L16.4368 18.1959C16.9212 16.1574 17.3876 14.2419 17.9286 12.8358C18.1793 12.1843 18.4139 11.7305 18.6182 11.449C18.8118 11.7281 19.033 12.1747 19.2676 12.815C19.7832 14.2222 20.2163 16.1361 20.676 18.1798L20.691 18.2467C21.1325 20.2098 21.601 22.2926 22.1851 23.8867C22.4785 24.6879 22.8386 25.4745 23.3095 26.0855C23.7718 26.6854 24.541 27.3623 25.666 27.3623C26.797 27.3623 27.5634 26.6792 28.0202 26.074C28.484 25.4599 28.8327 24.6707 29.1144 23.8708C29.6559 22.3344 30.0864 20.3408 30.497 18.4444V18.4443L30.5558 18.169C30.9978 16.1278 31.422 14.2214 31.946 12.8246C32.0594 12.5208 32.1712 12.2617 32.2778 12.0441C33.0805 13.7921 33.5257 15.7223 33.5257 17.7513C33.5257 25.6413 26.7942 32.0377 18.4899 32.0377C10.1857 32.0377 3.45386 25.6413 3.45386 17.7513C3.45386 15.6762 3.91948 13.7044 4.75685 11.9253ZM18.4899 0.607666C8.52488 0.607666 0.446655 8.28312 0.446655 17.7513C0.446655 27.2194 8.52488 34.8948 18.4899 34.8948C28.4551 34.8948 36.5329 27.2194 36.5329 17.7513C36.5329 8.28312 28.4551 0.607666 18.4899 0.607666ZM18.8336 11.2098C18.8336 11.2101 18.8301 11.2128 18.8231 11.2167C18.8301 11.2114 18.8336 11.2095 18.8336 11.2098ZM18.418 11.2117C18.411 11.2077 18.4075 11.2049 18.4075 11.2045C18.4075 11.2042 18.4111 11.2062 18.418 11.2117ZM25.4373 24.5623C25.4373 24.5623 25.4406 24.5592 25.4471 24.5552C25.4406 24.5605 25.4373 24.5627 25.4373 24.5623ZM25.8746 24.5508C25.8815 24.5548 25.8853 24.5574 25.8853 24.5579C25.8853 24.5583 25.8815 24.5561 25.8746 24.5508ZM11.2105 24.5879C11.2104 24.5875 11.2148 24.5835 11.2234 24.5778C11.2148 24.5853 11.2105 24.5884 11.2105 24.5879ZM11.8195 24.5804C11.8281 24.5862 11.8324 24.5901 11.8324 24.5906C11.8323 24.591 11.828 24.5884 11.8195 24.5804Z" fill="#81818B"/>
<path d="M46.4958 27.9007L42.1205 13.6801H45.953L48.5481 23.9154L51.5652 13.6801H55.8503L58.868 23.9154L61.493 13.6801H65.3255L60.9197 27.9007H56.9066L53.7078 17.2639L50.5095 27.9007H46.4958Z" fill="#81818B"/>
<path d="M70.9488 28.2449C69.6615 28.2449 68.6052 28.0533 67.7804 27.6711C66.9562 27.2698 66.3424 26.7442 65.9398 26.0943C65.5376 25.4444 65.3365 24.7277 65.3365 23.9442C65.3365 22.6254 65.8794 21.5549 66.9656 20.733C68.0519 19.9112 69.682 19.5002 71.8544 19.5002H75.6565V19.1562C75.6565 18.1813 75.3646 17.4646 74.7813 17.0059C74.198 16.5471 73.4735 16.3178 72.6089 16.3178C71.824 16.3178 71.1399 16.4993 70.5566 16.8625C69.9734 17.2066 69.6111 17.7226 69.4704 18.4107H65.6983C65.7991 17.3786 66.1613 16.4802 66.7845 15.7157C67.4287 14.9512 68.2535 14.3682 69.2588 13.9668C70.2653 13.5463 71.3914 13.3361 72.6388 13.3361C74.7713 13.3361 76.4508 13.8425 77.6783 14.8556C78.9052 15.8686 79.5189 17.3022 79.5189 19.1562V27.9007H76.2292L75.8675 25.6072C75.425 26.3717 74.8012 27.0022 73.9969 27.4995C73.2121 27.9963 72.1962 28.2449 70.9488 28.2449ZM71.824 25.3776C72.9307 25.3776 73.7854 25.0334 74.3886 24.3455C75.0123 23.6575 75.405 22.8067 75.5662 21.7938H72.2765C71.2507 21.7938 70.5167 21.9754 70.0736 22.3386C69.6316 22.6824 69.41 23.1129 69.41 23.6287C69.41 24.1831 69.6316 24.6131 70.0736 24.9188C70.5167 25.2245 71.0995 25.3776 71.824 25.3776Z" fill="#81818B"/>
<path d="M85.5989 27.9007L80.1074 13.6801H84.1504L87.9525 24.4317L91.7545 13.6801H95.7981L90.2761 27.9007H85.5989Z" fill="#81818B"/>
<path d="M103.562 28.2449C102.054 28.2449 100.716 27.9388 99.5491 27.3273C98.3826 26.7155 97.4675 25.8554 96.8034 24.7467C96.1393 23.6385 95.808 22.3577 95.808 20.905C95.808 19.4333 96.1298 18.124 96.7729 16.9772C97.4371 15.8304 98.3422 14.9416 99.4893 14.3108C100.655 13.661 102.023 13.3361 103.593 13.3361C105.061 13.3361 106.359 13.6419 107.486 14.2535C108.612 14.8651 109.487 15.7061 110.111 16.7765C110.754 17.8277 111.077 19.0032 111.077 20.303C111.077 20.5132 111.066 20.733 111.046 20.9624C111.046 21.1918 111.036 21.4307 111.016 21.6792H99.64C99.7203 22.7877 100.123 23.6575 100.847 24.2884C101.591 24.9188 102.487 25.2343 103.533 25.2343C104.317 25.2343 104.971 25.0719 105.494 24.7467C106.037 24.403 106.439 23.9632 106.701 23.4279H110.623C110.342 24.3264 109.869 25.1485 109.205 25.8939C108.561 26.6199 107.757 27.1933 106.791 27.614C105.846 28.0343 104.769 28.2449 103.562 28.2449ZM103.593 16.3178C102.648 16.3178 101.812 16.5758 101.088 17.0919C100.364 17.5888 99.9014 18.3534 99.6998 19.3855H107.153C107.093 18.4489 106.731 17.7035 106.067 17.1492C105.403 16.5949 104.579 16.3178 103.593 16.3178Z" fill="#81818B"/>
<path d="M113.118 27.9007V7.25781H116.98V27.9007H113.118Z" fill="#81818B"/>
<path d="M126.991 28.2449C125.483 28.2449 124.145 27.9388 122.978 27.3273C121.812 26.7155 120.897 25.8554 120.233 24.7467C119.568 23.6385 119.237 22.3577 119.237 20.905C119.237 19.4333 119.559 18.124 120.202 16.9772C120.866 15.8304 121.771 14.9416 122.918 14.3108C124.085 13.661 125.453 13.3361 127.022 13.3361C128.49 13.3361 129.788 13.6419 130.915 14.2535C132.041 14.8651 132.917 15.7061 133.54 16.7765C134.183 17.8277 134.506 19.0032 134.506 20.303C134.506 20.5132 134.495 20.733 134.475 20.9624C134.475 21.1918 134.465 21.4307 134.445 21.6792H123.069C123.149 22.7877 123.552 23.6575 124.276 24.2884C125.02 24.9188 125.916 25.2343 126.962 25.2343C127.746 25.2343 128.4 25.0719 128.923 24.7467C129.466 24.403 129.868 23.9632 130.13 23.4279H134.053C133.771 24.3264 133.298 25.1485 132.635 25.8939C131.99 26.6199 131.186 27.1933 130.22 27.614C129.275 28.0343 128.199 28.2449 126.991 28.2449ZM127.022 16.3178C126.077 16.3178 125.242 16.5758 124.517 17.0919C123.793 17.5888 123.331 18.3534 123.129 19.3855H130.582C130.522 18.4489 130.16 17.7035 129.496 17.1492C128.832 16.5949 128.008 16.3178 127.022 16.3178Z" fill="#81818B"/>
<path d="M142.733 28.2449C141.405 28.2449 140.238 28.044 139.233 27.6428C138.226 27.222 137.422 26.6487 136.818 25.9222C136.215 25.1962 135.853 24.3552 135.732 23.3996H139.625C139.745 23.9535 140.068 24.4317 140.591 24.833C141.133 25.2152 141.827 25.4064 142.672 25.4064C143.517 25.4064 144.131 25.244 144.513 24.9188C144.915 24.5941 145.117 24.2212 145.117 23.8008C145.117 23.189 144.835 22.778 144.272 22.5678C143.709 22.3386 142.924 22.1188 141.918 21.9085C141.275 21.7747 140.621 21.6123 139.957 21.4211C139.293 21.23 138.68 20.991 138.116 20.7044C137.573 20.3985 137.13 20.0163 136.788 19.5575C136.446 19.0797 136.276 18.4967 136.276 17.8086C136.276 16.5471 136.798 15.4864 137.845 14.6262C138.911 13.7661 140.399 13.3361 142.31 13.3361C144.081 13.3361 145.489 13.7279 146.535 14.5115C147.601 15.2952 148.235 16.3751 148.436 17.7513H144.785C144.563 16.7001 143.728 16.1744 142.281 16.1744C141.556 16.1744 140.993 16.3082 140.591 16.5758C140.208 16.8434 140.017 17.1779 140.017 17.5793C140.017 17.9998 140.309 18.3343 140.892 18.5828C141.476 18.8312 142.25 19.0606 143.216 19.2709C144.261 19.5002 145.217 19.7582 146.082 20.0449C146.967 20.3125 147.671 20.7235 148.195 21.2778C148.718 21.8129 148.979 22.5869 148.979 23.6C148.999 24.4795 148.757 25.2723 148.255 25.9797C147.752 26.6867 147.028 27.2411 146.082 27.6428C145.137 28.044 144.02 28.2449 142.733 28.2449Z" fill="#81818B"/>
<path d="M157.379 28.2449C156.052 28.2449 154.885 28.044 153.879 27.6428C152.873 27.222 152.069 26.6487 151.465 25.9222C150.862 25.1962 150.499 24.3552 150.379 23.3996H154.272C154.392 23.9535 154.714 24.4317 155.237 24.833C155.78 25.2152 156.474 25.4064 157.319 25.4064C158.164 25.4064 158.778 25.244 159.16 24.9188C159.562 24.5941 159.764 24.2212 159.764 23.8008C159.764 23.189 159.482 22.778 158.918 22.5678C158.355 22.3386 157.571 22.1188 156.565 21.9085C155.921 21.7747 155.267 21.6123 154.603 21.4211C153.94 21.23 153.326 20.991 152.763 20.7044C152.22 20.3985 151.777 20.0163 151.435 19.5575C151.093 19.0797 150.922 18.4967 150.922 17.8086C150.922 16.5471 151.445 15.4864 152.491 14.6262C153.558 13.7661 155.046 13.3361 156.957 13.3361C158.727 13.3361 160.135 13.7279 161.182 14.5115C162.247 15.2952 162.881 16.3751 163.083 17.7513H159.431C159.21 16.7001 158.375 16.1744 156.927 16.1744C156.202 16.1744 155.639 16.3082 155.237 16.5758C154.855 16.8434 154.664 17.1779 154.664 17.5793C154.664 17.9998 154.955 18.3343 155.539 18.5828C156.122 18.8312 156.896 19.0606 157.862 19.2709C158.908 19.5002 159.864 19.7582 160.729 20.0449C161.614 20.3125 162.318 20.7235 162.841 21.2778C163.364 21.8129 163.626 22.5869 163.626 23.6C163.646 24.4795 163.404 25.2723 162.901 25.9797C162.398 26.6867 161.675 27.2411 160.729 27.6428C159.783 28.044 158.667 28.2449 157.379 28.2449Z" fill="#81818B"/>
</svg>
